<svg width="12" height="13" viewBox="0 0 12 13" fill="none" xmlns="http://www.w3.org/2000/svg">
<mask id="mask0_204_2497" style="mask-type:alpha" maskUnits="userSpaceOnUse" x="1" y="1" width="10" height="11">
<path d="M4.07066 10.8043L9.07078 5.80418L6.69582 3.42922L1.6957 8.42934C1.62686 8.49826 1.57797 8.58453 1.55419 8.67899L1 11.5L3.82047 10.9458C3.91516 10.9221 4.00179 10.8732 4.07066 10.8043ZM10.6849 4.19003C10.8867 3.98823 11 3.71457 11 3.42922C11 3.14388 10.8867 2.87022 10.6849 2.66842L9.83158 1.81507C9.62978 1.61333 9.35612 1.5 9.07078 1.5C8.78543 1.5 8.51177 1.61333 8.30997 1.81507L7.45662 2.66842L9.83158 5.04338L10.6849 4.19003Z" fill="white"/>
</mask>
<g mask="url(#mask0_204_2497)">
<rect y="0.5" width="12" height="12" fill="white"/>
</g>
</svg>
