<svg width="24" height="24" viewBox="0 0 24 24" fill="none" xmlns="http://www.w3.org/2000/svg">
<path d="M12 8V12L14.5 14.5" fill="#8F9098"/>
<path d="M12 8V12L14.5 14.5" stroke="#8F9098" stroke-width="1.5" stroke-linecap="round" stroke-linejoin="round"/>
<path d="M4.33797 6.87089L3.58797 6.87389C3.58876 7.07159 3.66758 7.26098 3.80728 7.40087C3.94698 7.54076 4.13627 7.61984 4.33397 7.62089L4.33797 6.87089ZM6.87997 7.63289C6.97846 7.63335 7.07608 7.6144 7.16725 7.57714C7.25842 7.53987 7.34136 7.48501 7.41132 7.41569C7.48129 7.34637 7.53692 7.26395 7.57504 7.17314C7.61316 7.08232 7.63301 6.98488 7.63347 6.88639C7.63393 6.7879 7.61499 6.69028 7.57772 6.59911C7.54045 6.50794 7.48559 6.425 7.41627 6.35503C7.34696 6.28506 7.26453 6.22943 7.17372 6.19132C7.0829 6.1532 6.98546 6.13335 6.88697 6.13289L6.87997 7.63289ZM5.07497 4.32089C5.07444 4.2224 5.05452 4.12497 5.01635 4.03418C4.97817 3.94339 4.92249 3.861 4.85247 3.79173C4.78246 3.72246 4.69948 3.66765 4.60829 3.63045C4.51709 3.59324 4.41946 3.57436 4.32097 3.57489C4.22248 3.57541 4.12505 3.59533 4.03426 3.63351C3.94347 3.67169 3.86108 3.72737 3.79181 3.79739C3.72254 3.8674 3.66773 3.95038 3.63053 4.04157C3.59332 4.13277 3.57444 4.2304 3.57497 4.32889L5.07497 4.32089ZM3.82697 10.7849C3.84134 10.6869 3.83615 10.587 3.81169 10.491C3.78724 10.395 3.74401 10.3048 3.6845 10.2256C3.62499 10.1464 3.55037 10.0797 3.46497 10.0295C3.37956 9.97933 3.28505 9.94654 3.18691 9.93307C3.08876 9.91959 2.98891 9.9257 2.89314 9.95103C2.79736 9.97636 2.70756 10.0204 2.6289 10.0806C2.55025 10.1409 2.48431 10.2161 2.43489 10.302C2.38547 10.3878 2.35355 10.4826 2.34097 10.5809L3.82697 10.7849ZM18.862 5.13789C15.042 1.31789 8.86897 1.27789 5.07397 5.07389L6.13397 6.13389C9.33397 2.93489 14.557 2.95389 17.802 6.19789L18.862 5.13789ZM5.13797 18.8619C8.95797 22.6819 15.131 22.7219 18.926 18.9259L17.866 17.8659C14.666 21.0649 9.44297 21.0459 6.19797 17.8019L5.13797 18.8619ZM18.926 18.9259C22.721 15.1309 22.682 8.95789 18.862 5.13789L17.802 6.19789C21.046 9.44289 21.065 14.6659 17.866 17.8659L18.926 18.9259ZM5.07397 5.07389L3.80697 6.33989L4.86797 7.39989L6.13397 6.13389L5.07397 5.07389ZM4.33397 7.62089L6.87997 7.63289L6.88697 6.13289L4.34197 6.12089L4.33397 7.62089ZM5.08797 6.86689L5.07497 4.32089L3.57497 4.32889L3.58797 6.87389L5.08797 6.86689ZM2.33997 10.5799C2.13435 12.0825 2.27992 13.6123 2.76523 15.0491C3.25054 16.486 4.06237 17.7907 5.13697 18.8609L6.19697 17.8009C5.28607 16.8943 4.59786 15.7887 4.18645 14.5712C3.77505 13.3536 3.65165 12.0572 3.82597 10.7839L2.33997 10.5799Z" fill="#8F9098"/>
</svg>
