<svg width="19" height="19" viewBox="0 0 19 19" fill="none" xmlns="http://www.w3.org/2000/svg">
<path d="M18.8335 17L15.1669 13.3333C16.0835 12 16.6667 10.4167 16.6667 8.66669C16.6667 4.33336 13.0834 0.75 8.75004 0.75C4.41671 0.75 0.833374 4.33336 0.833374 8.66669C0.833374 13 4.41671 16.5834 8.75004 16.5834C10.5 16.5834 12.0835 16 13.4168 15.0833L17.0834 18.75L18.8335 17ZM3.33337 8.75001C3.33337 5.75001 5.75004 3.33334 8.75004 3.33334C11.75 3.33334 14.1667 5.75001 14.1667 8.75001C14.1667 11.75 11.75 14.1667 8.75004 14.1667C5.75004 14.1667 3.33337 11.75 3.33337 8.75001Z" fill="black"/>
</svg>
