<svg width="67" height="66" viewBox="0 0 67 66" fill="none" xmlns="http://www.w3.org/2000/svg">
<path d="M33.5 11C36.4174 11 39.2153 12.1589 41.2782 14.2218C43.3411 16.2847 44.5 19.0826 44.5 22C44.5 24.9174 43.3411 27.7153 41.2782 29.7782C39.2153 31.8411 36.4174 33 33.5 33C30.5826 33 27.7847 31.8411 25.7218 29.7782C23.6589 27.7153 22.5 24.9174 22.5 22C22.5 19.0826 23.6589 16.2847 25.7218 14.2218C27.7847 12.1589 30.5826 11 33.5 11ZM33.5 55C33.5 55 55.5 55 55.5 49.5C55.5 42.9 44.775 35.75 33.5 35.75C22.225 35.75 11.5 42.9 11.5 49.5C11.5 55 33.5 55 33.5 55Z" fill="#8F9098"/>
</svg>
