<svg width="31" height="31" viewBox="0 0 31 31" fill="none" xmlns="http://www.w3.org/2000/svg">
<path fill-rule="evenodd" clip-rule="evenodd" d="M17.8795 6.57089C16.4964 5.43536 14.5036 5.43535 13.1205 6.57089L6.41366 12.0771C5.83525 12.552 5.5 13.261 5.5 14.0093V23C5.5 24.3808 6.61929 25.5 8 25.5H23C24.3807 25.5 25.5 24.3808 25.5 23V14.0093C25.5 13.261 25.1647 12.552 24.5863 12.0771L17.8795 6.57089ZM11.5342 4.63865C13.8394 2.7461 17.1606 2.7461 19.4659 4.63866L26.1727 10.1449C27.3295 11.0946 28 12.5126 28 14.0093V23C28 25.7615 25.7614 28 23 28H8C5.23858 28 3 25.7615 3 23V14.0093C3 12.5126 3.67051 11.0946 4.82732 10.1449L11.5342 4.63865Z" fill="black"/>
<path fill-rule="evenodd" clip-rule="evenodd" d="M10.5 20.5C10.5 18.4289 12.1789 16.75 14.25 16.75H16.75C18.8211 16.75 20.5 18.4289 20.5 20.5V26.75H18V20.5C18 19.8096 17.4404 19.25 16.75 19.25H14.25C13.5596 19.25 13 19.8096 13 20.5V26.75H10.5V20.5Z" fill="black"/>
</svg>
