<svg width="31" height="31" viewBox="0 0 31 31" fill="none" xmlns="http://www.w3.org/2000/svg">
<path fill-rule="evenodd" clip-rule="evenodd" d="M15.5 5.5C13.4289 5.5 11.75 7.17893 11.75 9.25C11.75 11.3211 13.4289 13 15.5 13C17.5711 13 19.25 11.3211 19.25 9.25C19.25 7.17893 17.5711 5.5 15.5 5.5ZM9.25 9.25C9.25 5.79822 12.0482 3 15.5 3C18.9518 3 21.75 5.79822 21.75 9.25C21.75 12.7018 18.9518 15.5 15.5 15.5C12.0482 15.5 9.25 12.7018 9.25 9.25Z" fill="#B3B3B3"/>
<path fill-rule="evenodd" clip-rule="evenodd" d="M15.5 25.5C11.8389 25.5 9.6683 24.3924 8.41924 22.9635C8.03865 22.5281 7.93947 22.1454 7.95097 21.8314C7.96324 21.4964 8.10806 21.1087 8.43404 20.7115C9.10363 19.8955 10.3767 19.25 11.75 19.25H19.25C20.6234 19.25 21.8964 19.8955 22.566 20.7115C22.892 21.1087 23.0368 21.4964 23.0491 21.8314C23.0606 22.1454 22.9614 22.5281 22.5808 22.9635C21.3317 24.3924 19.1611 25.5 15.5 25.5ZM6.537 24.6088C8.3777 26.7146 11.3166 28 15.5 28C19.6834 28 22.6223 26.7146 24.463 24.6088C25.2183 23.7448 25.5846 22.7545 25.5474 21.7399C25.511 20.7464 25.0931 19.85 24.4986 19.1256C23.3272 17.6981 21.3285 16.75 19.25 16.75H11.75C9.67159 16.75 7.67281 17.6981 6.50145 19.1256C5.90696 19.85 5.48904 20.7464 5.45264 21.7399C5.41548 22.7545 5.78171 23.7448 6.537 24.6088Z" fill="#B3B3B3"/>
</svg>
